<?xml version="1.0" encoding="utf-8"?>
<!-- Generator: Adobe Illustrator 25.1.0, SVG Export Plug-In . SVG Version: 6.00 Build 0)  -->
<svg version="1.1" id="Capa_1" xmlns="http://www.w3.org/2000/svg" xmlns:xlink="http://www.w3.org/1999/xlink" x="0px" y="0px"
	 viewBox="0 0 512 512" style="enable-background:new 0 0 512 512;" xml:space="preserve">
<path d="M159.7,9.7l-50,50c-3.6,3.6-4.6,9-2.7,13.6s6.5,7.7,11.6,7.7h100c5.1,0,9.6-3,11.6-7.7s0.9-10.1-2.7-13.6l-50-50
	C172.5,4.8,164.5,4.8,159.7,9.7z M106,106c-27.6,0-50,22.4-50,50v200c0,27.6,22.4,50,50,50h300c27.6,0,50-22.4,50-50V156
	c0-27.6-22.4-50-50-50H106z M181,181c20.7,0,37.5,16.8,37.5,37.5S201.7,256,181,256s-37.5-16.8-37.5-37.5S160.3,181,181,181z
	 M118.5,318.5c0-20.7,16.8-37.5,37.5-37.5h50c20.7,0,37.5,16.8,37.5,37.5V331c0,13.8-11.2,25-25,25h-75c-13.8,0-25-11.2-25-25V318.5
	z M268.5,318.5c0-20.7,16.8-37.5,37.5-37.5h50c20.7,0,37.5,16.8,37.5,37.5V331c0,13.8-11.2,25-25,25h-75c-13.8,0-25-11.2-25-25
	V318.5z M293.5,218.5c0-20.7,16.8-37.5,37.5-37.5s37.5,16.8,37.5,37.5S351.7,256,331,256S293.5,239.2,293.5,218.5z M334.7,77.3
	c4.8,4.8,12.8,4.8,17.7,0l50-50c3.6-3.6,4.6-9,2.7-13.6c-1.9-4.6-6.5-7.7-11.6-7.7h-100c-5.1,0-9.6,3-11.6,7.7s-0.9,10.1,2.7,13.6
	L334.7,77.3z"/>
<polygon points="456,406 256,507 56,406 56,356 261.4,356 455.7,361.5 "/>
</svg>
