<?xml version="1.0" standalone="no"?>
<!DOCTYPE svg PUBLIC "-//W3C//DTD SVG 20010904//EN"
 "http://www.w3.org/TR/2001/REC-SVG-20010904/DTD/svg10.dtd">
<svg version="1.0" xmlns="http://www.w3.org/2000/svg"
 width="96.000000pt" height="96.000000pt" viewBox="0 0 96.000000 96.000000"
 preserveAspectRatio="xMidYMid meet">

<g transform="translate(0.000000,96.000000) scale(0.100000,-0.100000)"
fill="#000000" stroke="none">
<path d="M385 887 c-107 -36 -186 -103 -229 -196 -59 -129 -38 -266 57 -377
34 -39 139 -104 169 -104 7 0 30 -34 51 -75 20 -41 41 -75 47 -75 6 0 27 34
47 75 21 41 44 75 51 75 29 0 133 64 168 103 92 102 116 250 60 373 -56 123
-176 204 -310 211 -41 1 -88 -3 -111 -10z m213 -179 c19 -19 14 -56 -8 -63
-11 -3 -20 -13 -20 -21 0 -8 -7 -26 -16 -39 l-16 -25 41 0 41 0 0 -69 c0 -50
-4 -72 -15 -81 -24 -20 -39 3 -36 55 1 25 -2 45 -7 45 -4 0 -7 -14 -4 -30 4
-31 -14 -90 -28 -90 -19 0 -31 29 -21 49 7 12 8 28 2 43 -15 39 -37 51 -80 44
-28 -4 -42 -2 -51 9 -10 13 -7 17 24 30 39 16 72 57 61 75 -5 8 -15 4 -31 -11
-24 -23 -54 -20 -54 5 0 15 55 66 71 66 4 0 23 -9 41 -20 41 -25 48 -25 48 -2
0 20 18 42 35 42 6 0 16 -5 23 -12z m-221 -189 c6 -6 9 -26 6 -44 -7 -45 25
-78 72 -74 18 2 40 -3 50 -11 15 -12 15 -15 -7 -26 -31 -18 -63 -17 -98 1 -40
21 -60 53 -60 96 0 61 13 82 37 58z"/>
</g>
</svg>
