<?xml version="1.0" encoding="UTF-8"?>
<!DOCTYPE svg PUBLIC "-//W3C//DTD SVG 1.1//EN" "http://www.w3.org/Graphics/SVG/1.1/DTD/svg11.dtd">
<svg xmlns="http://www.w3.org/2000/svg" version="1.1" width="800px" height="800px" style="shape-rendering:geometricPrecision; text-rendering:geometricPrecision; image-rendering:optimizeQuality; fill-rule:evenodd; clip-rule:evenodd" xmlns:xlink="http://www.w3.org/1999/xlink">
<g><path style="opacity:0.948" fill="#000000" d="M 200.5,25.5 C 230.244,24.0192 249.577,37.3525 258.5,65.5C 260.963,83.7589 255.63,99.5923 242.5,113C 238.065,116.957 233.065,119.957 227.5,122C 238.394,152.369 249.227,182.869 260,213.5C 299.782,201.74 339.615,190.074 379.5,178.5C 380.799,179.09 381.632,180.09 382,181.5C 386.067,195.868 390.234,210.202 394.5,224.5C 394.291,225.086 393.957,225.586 393.5,226C 355.077,236.197 316.743,246.697 278.5,257.5C 281.502,266.846 284.502,276.179 287.5,285.5C 341.302,269.922 395.135,254.256 449,238.5C 486.606,284.784 524.273,331.118 562,377.5C 577.658,366.179 593.324,354.846 609,343.5C 618.07,353.734 626.57,364.401 634.5,375.5C 606.791,397.702 578.625,419.369 550,440.5C 510.8,391.646 471.3,343.146 431.5,295C 374.804,310.561 318.138,326.561 261.5,343C 260.167,343.667 258.833,343.667 257.5,343C 228.948,266.014 200.781,188.847 173,111.5C 153.726,88.6274 153.06,65.2941 171,41.5C 179.431,33.3715 189.264,28.0381 200.5,25.5 Z"/></g>
<g><path style="opacity:0.965" fill="#000000" d="M 201.5,239.5 C 203.357,240.602 204.691,242.269 205.5,244.5C 211.302,259.648 216.635,274.982 221.5,290.5C 191.015,330.469 182.515,373.135 196,418.5C 214.105,466.993 248.105,495.993 298,505.5C 346.483,513.515 387.483,498.182 421,459.5C 436.227,439.237 445.727,416.737 449.5,392C 449.872,380.048 449.872,367.882 449.5,355.5C 467.051,373.551 483.718,392.385 499.5,412C 489.217,458.033 465.55,495.2 428.5,523.5C 529.158,495.61 630.658,466.61 733,436.5C 733.5,535.499 733.667,634.499 733.5,733.5C 510.833,733.5 288.167,733.5 65.5,733.5C 65.1706,698.594 65.5039,663.76 66.5,629C 146.562,606.081 226.229,583.081 305.5,560C 304.464,558.383 303.297,558.216 302,559.5C 242.828,551.565 196.494,521.899 163,470.5C 137.035,423.602 131.202,376.435 145.5,329C 154.322,294.028 172.989,264.194 201.5,239.5 Z M 697.5,482.5 C 699.497,554.492 700.164,626.826 699.5,699.5C 499.5,699.5 299.5,699.5 99.5,699.5C 98.8596,684.424 99.5262,669.59 101.5,655C 300.284,597.475 498.951,539.975 697.5,482.5 Z"/></g>
<g><path style="opacity:0.005" fill="#000000" d="M 495.5,453.5 C 496.773,454.077 496.773,454.743 495.5,455.5C 494.537,455.03 494.537,454.363 495.5,453.5 Z"/></g>
</svg>
